# xmcd
#
# Track frame offsets:
#	150
#	19399
#	40120
#	65817
#	84453
#	100538
#	117646
#	143190
#	162751
#	184395
#	200802
#	220269
#	238090
#	253478
#	274467
#	289563
#	316908
#
# Disc length: 4504 seconds
#
# Revision: 1
# Processed by: cddbd v1.5PL3 Copyright (c) Steve Scherf et al.
# Submitted via: CDex 1.50Beta5
#
DISCID=0e119611
DTITLE=新規アーティスト - 新規タイトル
DYEAR=1900
DGENRE=Unclassifiable -> General Unclassifiable
TTITLE0=山口百恵-REBIRTH／百恵全集-COSMOS　（宇宙）
TTITLE1=山口百恵-REBIRTH／百恵全集-CRY FOR ME
TTITLE2=山口百恵-REBIRTH／百恵全集-DANCIN' IN THE RAIN
TTITLE3=山口百恵-REBIRTH／百恵全集-E-MC＾２
TTITLE4=山口百恵-REBIRTH／百恵全集-GAME IS OVER
TTITLE5=山口百恵-REBIRTH／百恵全集-I CAME FROM 横須賀
TTITLE6=山口百恵-REBIRTH／百恵全集-This is my trial 私の試練
TTITLE7=山口百恵-REBIRTH／百恵全集-あなたへの子守唄
TTITLE8=山口百恵-REBIRTH／百恵全集-アポカリブス・ラブ
TTITLE9=山口百恵-REBIRTH／百恵全集-ありがとうあなた
TTITLE10=山口百恵-REBIRTH／百恵全集-いい日旅立ち
TTITLE11=山口百恵-REBIRTH／百恵全集-いま目覚めた子供のように
TTITLE12=山口百恵-REBIRTH／百恵全集-イミテーション・ゴールド
TTITLE13=山口百恵-REBIRTH／百恵全集-イントロダクション・春
TTITLE14=山口百恵-REBIRTH／百恵全集-ささやかな欲望
TTITLE15=山口百恵-REBIRTH／百恵全集-さよならの向う側
TTITLE16=山口百恵-REBIRTH／百恵全集-サンタマリアの熱い風
EXTD=
EXTT0=
EXTT1=
EXTT2=
EXTT3=
EXTT4=
EXTT5=
EXTT6=
EXTT7=
EXTT8=
EXTT9=
EXTT10=
EXTT11=
EXTT12=
EXTT13=
EXTT14=
EXTT15=
EXTT16=
PLAYORDER=
